<svg xmlns="http://www.w3.org/2000/svg" width="25" height="24" viewBox="0 0 25 24" fill="none">
  <path d="M9.5 17H5.5C4.96957 17 4.46086 16.7893 4.08579 16.4142C3.71071 16.0391 3.5 15.5304 3.5 15V4C3.5 3.46957 3.71071 2.96086 4.08579 2.58579C4.46086 2.21071 4.96957 2 5.5 2H13.5C14.0304 2 14.5391 2.21071 14.9142 2.58579C15.2893 2.96086 15.5 3.46957 15.5 4V7H18.5L21.5 10V20C21.5 20.5304 21.2893 21.0391 20.9142 21.4142C20.5391 21.7893 20.0304 22 19.5 22H11.5C10.9696 22 10.4609 21.7893 10.0858 21.4142C9.71071 21.0391 9.5 20.5304 9.5 20V17ZM9.5 15V9C9.5 8.46957 9.71071 7.96086 10.0858 7.58579C10.4609 7.21071 10.9696 7 11.5 7H13.5V4H5.5V15H9.5ZM17.672 9H11.5V20H19.5V10.828L17.672 9Z" fill="white"/>
</svg>