<svg xmlns="http://www.w3.org/2000/svg" width="24" height="24" viewBox="0 0 24 24" fill="none">
  <path d="M6.2581 8.88406L11.9701 18.9771L17.5881 9.14706C16.2581 9.04206 14.8761 8.69406 13.3461 8.15506C12.9511 8.01506 12.7481 7.98406 12.5661 8.00706C12.4121 8.02706 10.8431 8.57606 9.9231 8.80906C8.7621 9.10306 7.5391 9.12606 6.2581 8.88406ZM4.8481 6.39406C6.5501 7.06406 8.0721 7.21406 9.4321 6.87006C10.1701 6.68306 11.9101 6.07406 12.3151 6.02306C12.8441 5.95606 13.3451 6.03306 14.0111 6.26806C15.7851 6.89406 17.3071 7.22406 18.7141 7.17706L19.6011 5.62506C17.2001 4.54825 14.5975 3.99433 11.9661 4.00006C9.35901 3.99455 6.78 4.53836 4.3971 5.59606L4.8481 6.39306V6.39406ZM2.5421 4.26806C5.45708 2.76988 8.68867 1.99216 11.9661 2.00006C15.3281 2.00006 18.5721 2.80006 21.4621 4.30606C21.5814 4.36826 21.687 4.45392 21.7725 4.55789C21.8579 4.66187 21.9215 4.78202 21.9594 4.91116C21.9973 5.0403 22.0088 5.17575 21.9931 5.30942C21.9774 5.44309 21.9349 5.57221 21.8681 5.68906L12.8341 21.4961C12.7464 21.6493 12.6197 21.7766 12.4668 21.8649C12.314 21.9533 12.1405 21.9997 11.9639 21.9993C11.7874 21.9988 11.6141 21.9517 11.4617 21.8626C11.3092 21.7735 11.1831 21.6457 11.0961 21.4921L2.1301 5.65006C2.06402 5.53298 2.02223 5.40377 2.00722 5.27017C1.99222 5.13657 2.00431 5.00131 2.04277 4.87249C2.08123 4.74366 2.14527 4.62392 2.23107 4.52041C2.31686 4.4169 2.42265 4.33175 2.5421 4.27006V4.26806ZM10.0001 12.0001C9.73488 12.0001 9.48053 11.8947 9.29299 11.7072C9.10546 11.5196 9.0001 11.2653 9.0001 11.0001C9.0001 10.7348 9.10546 10.4805 9.29299 10.293C9.48053 10.1054 9.73488 10.0001 10.0001 10.0001C10.2653 10.0001 10.5197 10.1054 10.7072 10.293C10.8947 10.4805 11.0001 10.7348 11.0001 11.0001C11.0001 11.2653 10.8947 11.5196 10.7072 11.7072C10.5197 11.8947 10.2653 12.0001 10.0001 12.0001ZM13.0001 15.0001C12.7349 15.0001 12.4805 14.8947 12.293 14.7072C12.1055 14.5196 12.0001 14.2653 12.0001 14.0001C12.0001 13.7348 12.1055 13.4805 12.293 13.293C12.4805 13.1054 12.7349 13.0001 13.0001 13.0001C13.2653 13.0001 13.5197 13.1054 13.7072 13.293C13.8947 13.4805 14.0001 13.7348 14.0001 14.0001C14.0001 14.2653 13.8947 14.5196 13.7072 14.7072C13.5197 14.8947 13.2653 15.0001 13.0001 15.0001Z" fill="white"/>
</svg>