<svg width="25" height="24" viewBox="0 0 25 24" fill="none" xmlns="http://www.w3.org/2000/svg">
<path d="M16.25 12C15.2844 12 14.3563 11.5687 13.625 10.7906C12.9172 10.0312 12.4813 9.01406 12.4063 7.93125C12.3266 6.77812 12.6782 5.71406 13.3954 4.94063C14.1125 4.17188 15.125 3.75 16.25 3.75C17.3657 3.75 18.3782 4.17656 19.0954 4.94531C19.8219 5.72344 20.1735 6.78281 20.0891 7.92656C20.0094 9.00938 19.5782 10.0266 18.8704 10.7859C18.1438 11.5688 17.2157 12 16.25 12ZM16.25 5.25C15.5469 5.25 14.9235 5.50312 14.4969 5.9625C14.0563 6.43594 13.8547 7.07812 13.9063 7.82344C13.9579 8.56406 14.2485 9.25781 14.7266 9.76875C15.1672 10.2422 15.711 10.5 16.25 10.5C16.7938 10.5 17.3329 10.2375 17.7735 9.76875C18.2516 9.25781 18.5422 8.56875 18.5938 7.82344C18.6454 7.10156 18.4344 6.44063 17.9938 5.97188C17.5672 5.50313 16.9438 5.25 16.25 5.25Z" fill="white"/>
<path d="M22.4282 20.25H10.0719C9.6641 20.25 9.2891 20.0672 9.04066 19.7485C8.78285 19.4157 8.6891 18.9657 8.79222 18.5391C9.18597 16.9547 10.1657 15.6422 11.6188 14.7375C12.9078 13.936 14.5532 13.4954 16.2453 13.4954C17.9703 13.4954 19.5735 13.9172 20.8719 14.7188C22.3297 15.6141 23.3094 16.936 23.7032 18.5391C23.8063 18.9657 23.7125 19.4157 23.4547 19.7485C23.211 20.0672 22.836 20.25 22.4282 20.25ZM10.2922 18.75H22.2125C21.4391 15.9844 18.5375 15 16.25 15C13.9719 15 11.075 15.9844 10.2922 18.75Z" fill="white"/>
<path d="M7.39065 12.1875C5.74065 12.1875 4.29221 10.6546 4.15628 8.77026C4.08596 7.80464 4.38596 6.91401 4.99534 6.25776C5.60003 5.61089 6.44846 5.25464 7.38596 5.25464C8.31878 5.25464 9.16721 5.61558 9.7719 6.26714C10.386 6.92808 10.686 7.8187 10.6157 8.77495C10.4891 10.6546 9.03596 12.1875 7.39065 12.1875ZM7.39065 6.74995C6.87503 6.74995 6.41565 6.93745 6.0969 7.27964C5.76878 7.6312 5.61409 8.10933 5.65628 8.66245C5.73596 9.75933 6.52815 10.6875 7.39065 10.6875C8.25315 10.6875 9.05003 9.75933 9.12503 8.66245C9.16253 8.12339 9.00315 7.63589 8.67971 7.28433C8.36096 6.93745 7.90159 6.74995 7.39065 6.74995Z" fill="white"/>
<path d="M7.71879 18.75H2.45472C2.08441 18.75 1.74222 18.5812 1.51254 18.2953C1.27816 17.9953 1.19379 17.5828 1.28754 17.1984C1.61097 15.8906 2.41722 14.8125 3.61254 14.0718C4.66722 13.4203 6.00785 13.0593 7.38597 13.0593C8.56722 13.0593 9.57504 13.2562 10.4657 13.664C10.8407 13.8375 11.0094 14.2828 10.836 14.6578C10.6625 15.0328 10.2172 15.2015 9.84222 15.0281C9.15316 14.714 8.3516 14.5593 7.39066 14.5593C5.67972 14.5593 3.51879 15.2718 2.83441 17.2546H7.71879C8.13129 17.2546 8.46879 17.5921 8.46879 18.0046C8.46879 18.4171 8.13129 18.75 7.71879 18.75Z" fill="white"/>
</svg>
