<svg xmlns="http://www.w3.org/2000/svg" width="25" height="24" viewBox="0 0 25 24" fill="none">
  <path d="M6.034 12.57C6.15695 12.5175 6.28916 12.4903 6.42283 12.4898C6.5565 12.4893 6.68891 12.5156 6.81223 12.5672C6.93555 12.6188 7.04728 12.6945 7.14082 12.79C7.23436 12.8855 7.3078 12.9988 7.35681 13.1231C7.40582 13.2475 7.4294 13.3804 7.42615 13.514C7.42291 13.6477 7.3929 13.7793 7.33792 13.9011C7.28293 14.023 7.20408 14.1325 7.10602 14.2234C7.00796 14.3142 6.89268 14.3845 6.767 14.43C6.09854 14.6934 5.52483 15.1519 5.1205 15.7458C4.71618 16.3397 4.49997 17.0415 4.5 17.76V19.5C4.5 19.7652 4.60536 20.0196 4.79289 20.2071C4.98043 20.3946 5.23478 20.5 5.5 20.5H13.5C13.7652 20.5 14.0196 20.3946 14.2071 20.2071C14.3946 20.0196 14.5 19.7652 14.5 19.5V17.853C14.5001 17.1115 14.2749 16.3874 13.8541 15.7768C13.4334 15.1662 12.837 14.6979 12.144 14.434C12.0175 14.3901 11.9012 14.3213 11.8018 14.2316C11.7024 14.1419 11.6221 14.0332 11.5655 13.9119C11.509 13.7905 11.4773 13.6591 11.4725 13.5253C11.4677 13.3916 11.4897 13.2582 11.5374 13.1331C11.5851 13.008 11.6574 12.8938 11.75 12.7972C11.8427 12.7006 11.9538 12.6235 12.0767 12.5706C12.1997 12.5177 12.332 12.4901 12.4659 12.4893C12.5998 12.4885 12.7324 12.5146 12.856 12.566C13.9276 12.9742 14.8499 13.6983 15.5006 14.6425C16.1514 15.5867 16.4999 16.7063 16.5 17.853V19.5C16.5 20.2956 16.1839 21.0587 15.6213 21.6213C15.0587 22.1839 14.2956 22.5 13.5 22.5H5.5C4.70435 22.5 3.94129 22.1839 3.37868 21.6213C2.81607 21.0587 2.5 20.2956 2.5 19.5V17.76C2.50014 16.6402 2.83728 15.5463 3.46756 14.6206C4.09785 13.695 4.9921 12.9805 6.034 12.57ZM9.5 2.5C10.5609 2.5 11.5783 2.92143 12.3284 3.67157C13.0786 4.42172 13.5 5.43913 13.5 6.5V8.5C13.5 9.56087 13.0786 10.5783 12.3284 11.3284C11.5783 12.0786 10.5609 12.5 9.5 12.5C8.43913 12.5 7.42172 12.0786 6.67157 11.3284C5.92143 10.5783 5.5 9.56087 5.5 8.5V6.5C5.5 5.43913 5.92143 4.42172 6.67157 3.67157C7.42172 2.92143 8.43913 2.5 9.5 2.5ZM9.5 4.5C8.96957 4.5 8.46086 4.71071 8.08579 5.08579C7.71071 5.46086 7.5 5.96957 7.5 6.5V8.5C7.5 9.03043 7.71071 9.53914 8.08579 9.91421C8.46086 10.2893 8.96957 10.5 9.5 10.5C10.0304 10.5 10.5391 10.2893 10.9142 9.91421C11.2893 9.53914 11.5 9.03043 11.5 8.5V6.5C11.5 5.96957 11.2893 5.46086 10.9142 5.08579C10.5391 4.71071 10.0304 4.5 9.5 4.5ZM18.5 21.5C18.2348 21.5 17.9804 21.3946 17.7929 21.2071C17.6054 21.0196 17.5 20.7652 17.5 20.5C17.5 20.2348 17.6054 19.9804 17.7929 19.7929C17.9804 19.6054 18.2348 19.5 18.5 19.5H19.5C19.7652 19.5 20.0196 19.3946 20.2071 19.2071C20.3946 19.0196 20.5 18.7652 20.5 18.5V16.662C20.5 15.9512 20.2763 15.2583 19.8606 14.6817C19.4449 14.105 18.8584 13.6738 18.184 13.449C18.0594 13.4075 17.9441 13.3419 17.8449 13.2558C17.7456 13.1698 17.6643 13.0651 17.6055 12.9476C17.5467 12.8301 17.5117 12.7022 17.5023 12.5712C17.493 12.4402 17.5095 12.3086 17.551 12.184C17.5925 12.0594 17.6581 11.9441 17.7442 11.8449C17.8302 11.7456 17.9349 11.6643 18.0524 11.6055C18.1699 11.5467 18.2978 11.5117 18.4288 11.5023C18.5598 11.493 18.6914 11.5095 18.816 11.551C19.8888 11.9085 20.8219 12.5945 21.4831 13.5118C22.1443 14.4291 22.5001 15.5312 22.5 16.662V18.5C22.5 19.2956 22.1839 20.0587 21.6213 20.6213C21.0587 21.1839 20.2956 21.5 19.5 21.5H18.5ZM15.5 3.5C15.2348 3.5 14.9804 3.39464 14.7929 3.20711C14.6054 3.01957 14.5 2.76522 14.5 2.5C14.5 2.23478 14.6054 1.98043 14.7929 1.79289C14.9804 1.60536 15.2348 1.5 15.5 1.5C16.5609 1.5 17.5783 1.92143 18.3284 2.67157C19.0786 3.42172 19.5 4.43913 19.5 5.5V7.5C19.5 8.56087 19.0786 9.57828 18.3284 10.3284C17.5783 11.0786 16.5609 11.5 15.5 11.5C15.2348 11.5 14.9804 11.3946 14.7929 11.2071C14.6054 11.0196 14.5 10.7652 14.5 10.5C14.5 10.2348 14.6054 9.98043 14.7929 9.79289C14.9804 9.60536 15.2348 9.5 15.5 9.5C16.0304 9.5 16.5391 9.28929 16.9142 8.91421C17.2893 8.53914 17.5 8.03043 17.5 7.5V5.5C17.5 4.96957 17.2893 4.46086 16.9142 4.08579C16.5391 3.71071 16.0304 3.5 15.5 3.5Z" fill="white"/>
</svg>