<svg width="20" height="17" viewBox="0 0 20 17" fill="none" xmlns="http://www.w3.org/2000/svg">
<path d="M20 1.90704C19.2504 2.23442 18.4565 2.44908 17.644 2.54404C18.4968 2.04327 19.138 1.24915 19.448 0.310042C18.64 0.78037 17.7587 1.11164 16.841 1.29004C16.4545 0.885247 15.9897 0.563429 15.4748 0.34422C14.9598 0.125011 14.4056 0.0130073 13.846 0.0150419C11.58 0.0150419 9.743 1.82504 9.743 4.05504C9.743 4.37104 9.779 4.68004 9.849 4.97504C8.22358 4.89774 6.63212 4.48245 5.17617 3.75568C3.72022 3.02891 2.43176 2.00662 1.393 0.754042C1.02883 1.36844 0.837415 2.06982 0.839 2.78404C0.839697 3.45201 1.00683 4.10927 1.32529 4.69644C1.64375 5.2836 2.1035 5.78215 2.663 6.14704C2.01248 6.12604 1.37602 5.95237 0.805 5.64004V5.69004C0.805 7.64804 2.22 9.28104 4.095 9.65304C3.74261 9.74654 3.37958 9.79394 3.015 9.79404C2.75 9.79404 2.493 9.76904 2.242 9.71904C2.51008 10.527 3.02311 11.2314 3.70982 11.7344C4.39653 12.2374 5.22284 12.5141 6.074 12.526C4.61407 13.6506 2.82182 14.2581 0.979 14.253C0.647 14.253 0.321 14.233 0 14.197C1.88125 15.3877 4.06259 16.0183 6.289 16.015C13.836 16.015 17.962 9.85804 17.962 4.51904L17.948 3.99604C18.7529 3.42971 19.4481 2.72189 20 1.90704Z" fill="white"/>
</svg>
