<svg width="12" height="12" viewBox="0 0 12 12" fill="none" xmlns="http://www.w3.org/2000/svg">
<path d="M5.98201 0.81897C4.61344 0.821086 3.30154 1.36576 2.33391 2.33358C1.36627 3.3014 0.821859 4.6134 0.820007 5.98197C0.821595 7.35089 1.36603 8.6633 2.33391 9.63136C3.30179 10.5994 4.61409 11.1441 5.98301 11.146C7.3521 11.1444 8.66466 10.5998 9.63275 9.63172C10.6008 8.66362 11.1454 7.35106 11.147 5.98197C11.1449 4.61305 10.5999 3.30085 9.63169 2.33316C8.66344 1.36547 7.35093 0.821292 5.98201 0.81997V0.81897ZM5.98201 9.13797C5.14525 9.13797 4.34276 8.80557 3.75109 8.21389C3.15941 7.62221 2.82701 6.81973 2.82701 5.98297C2.82701 5.14621 3.15941 4.34373 3.75109 3.75205C4.34276 3.16037 5.14525 2.82797 5.98201 2.82797C6.81877 2.82797 7.62125 3.16037 8.21293 3.75205C8.80461 4.34373 9.13701 5.14621 9.13701 5.98297C9.13701 6.81973 8.80461 7.62221 8.21293 8.21389C7.62125 8.80557 6.81877 9.13797 5.98201 9.13797Z" fill="white"/>
</svg>
